HIERARCHY
ROOT Hips
{
	OFFSET -0.001795 -0.223333 0.028219
	CHANNELS 6 Xposition Yposition Zposition Zrotation Yrotation Xrotation 
	JOINT LeftUpLeg
	{
		OFFSET 0.069520 -0.091406 -0.006815
		CHANNELS 3 Zrotation Yrotation Xrotation
		JOINT LeftLeg
		{
			OFFSET 0.034277 -0.375199 -0.004496
			CHANNELS 3 Zrotation Yrotation Xrotation
			JOINT LeftFoot
			{
				OFFSET -0.013596 -0.397961 -0.043693
				CHANNELS 3 Zrotation Yrotation Xrotation
				JOINT LeftToe
				{
					OFFSET 0.026358 -0.055791 0.119288
					CHANNELS 3 Zrotation Yrotation Xrotation
					End Site
					{
						OFFSET 0.000000 0.000000 0.000000
					}
				}
			}
		}
	}
	JOINT RightUpLeg
	{
		OFFSET -0.067670 -0.090522 -0.004320
		CHANNELS 3 Zrotation Yrotation Xrotation
		JOINT RightLeg
		{
			OFFSET -0.038290 -0.382569 -0.008850
			CHANNELS 3 Zrotation Yrotation Xrotation
			JOINT RightFoot
			{
				OFFSET 0.015774 -0.398415 -0.042312
				CHANNELS 3 Zrotation Yrotation Xrotation
				JOINT RightToe
				{
					OFFSET -0.025372 -0.048144 0.123348
					CHANNELS 3 Zrotation Yrotation Xrotation
					End Site
					{
						OFFSET 0.000000 0.000000 0.000000
					}
				}
			}
		}
	}
	JOINT Spine
	{
		OFFSET -0.002533 0.108963 -0.026696
		CHANNELS 3 Zrotation Yrotation Xrotation
		JOINT Spine1
		{
			OFFSET 0.005487 0.135180 0.001092
			CHANNELS 3 Zrotation Yrotation Xrotation
			JOINT Spine2
			{
				OFFSET 0.001457 0.052922 0.025425
				CHANNELS 3 Zrotation Yrotation Xrotation
				JOINT Neck
				{
					OFFSET -0.002778 0.213870 -0.042857
					CHANNELS 3 Zrotation Yrotation Xrotation
					JOINT Head
					{
						OFFSET 0.005152 0.064970 0.051349
						CHANNELS 3 Zrotation Yrotation Xrotation
						End Site
						{
							OFFSET 0.000000 0.000000 0.000000
						}
					}
				}
				JOINT LeftShoulder
				{
					OFFSET 0.078845 0.121749 -0.034090
					CHANNELS 3 Zrotation Yrotation Xrotation
					JOINT LeftArm
					{
						OFFSET 0.090977 0.030469 -0.008868
						CHANNELS 3 Zrotation Yrotation Xrotation
						JOINT LeftForeArm
						{
							OFFSET 0.259612 -0.012772 -0.027456
							CHANNELS 3 Zrotation Yrotation Xrotation
							JOINT LeftHand
							{
								OFFSET 0.249234 0.008986 -0.001171
								CHANNELS 3 Zrotation Yrotation Xrotation
								End Site
								{
									OFFSET 0.000000 0.000000 0.000000
								}
							}
						}
					}
				}
				JOINT RightShoulder
				{
					OFFSET -0.081759 0.118833 -0.038615
					CHANNELS 3 Zrotation Yrotation Xrotation
					JOINT RightArm
					{
						OFFSET -0.096012 0.032551 -0.009143
						CHANNELS 3 Zrotation Yrotation Xrotation
						JOINT RightForeArm
						{
							OFFSET -0.253742 -0.013329 -0.021401
							CHANNELS 3 Zrotation Yrotation Xrotation
							JOINT RightHand
							{
								OFFSET -0.255298 0.007772 -0.005559
								CHANNELS 3 Zrotation Yrotation Xrotation
								End Site
								{
									OFFSET 0.000000 0.000000 0.000000
								}
							}
						}
					}
				}
			}
		}
	}
}
MOTION
Frames: 16
Frame Time: 0.050000
-0.131042 0.945737 0.398475 -3.537107 9.008791 4.582360 4.090652 -0.304760 -2.589853 1.829755 0.086502 -5.441275 -6.307141 -6.739118 8.944047 0.000000 0.000000 0.000000 0.599883 -0.027589 0.199395 3.685727 -0.513363 -5.708234 -5.500449 -14.317013 7.663466 0.000000 0.000000 0.000000 -2.404645 0.066828 -0.899428 -7.264910 3.316255 -1.379549 4.378066 7.890944 6.545997 1.987301 0.616769 -12.164303 0.000000 0.000000 0.000000 -23.570945 -1.658278 -5.100084 -45.208399 2.162804 -5.166699 -7.901854 -24.831024 2.045896 0.000000 0.000000 0.000000 18.160966 14.667429 9.542252 29.048676 35.220483 3.989294 -18.427057 39.565672 -3.866933 0.000000 0.000000 0.000000 
-0.130996 0.946036 0.397588 -3.478275 9.167349 4.610800 3.800566 -0.312551 -2.847015 1.903138 0.071085 -5.154264 -6.342043 -6.860886 8.831845 0.000000 0.000000 0.000000 0.405971 -0.019149 0.165602 3.824201 -0.526880 -5.791482 -5.563522 -14.443588 7.884841 0.000000 0.000000 0.000000 -2.320164 0.062368 -0.712430 -7.172726 3.274415 -1.355899 4.351592 8.042255 6.421898 1.889345 0.674943 -12.000799 0.000000 0.000000 0.000000 -23.669251 -1.512520 -5.283699 -45.332308 2.164115 -5.153542 -7.903255 -24.993292 2.041868 0.000000 0.000000 0.000000 18.301849 14.653568 9.625820 29.072204 35.329116 4.015645 -19.106315 39.188900 -4.036895 0.000000 0.000000 0.000000 
-0.131005 0.946260 0.396827 -3.322456 9.411838 4.682797 3.568801 -0.317008 -2.987504 1.910759 0.070662 -5.144857 -6.508112 -7.003171 9.034750 0.000000 0.000000 0.000000 0.156964 -0.023328 0.256218 3.929809 -0.539486 -5.945970 -5.557328 -14.417565 7.925210 0.000000 0.000000 0.000000 -2.293529 0.058540 -0.513590 -7.247795 3.310196 -1.063908 4.362551 7.968193 6.168178 1.783064 0.737447 -11.963682 0.000000 0.000000 0.000000 -23.451607 -1.764427 -5.104672 -45.675713 1.901757 -5.095661 -7.696403 -25.088969 1.996869 0.000000 0.000000 0.000000 18.285237 15.018934 9.832767 29.004772 35.324804 4.016466 -20.101795 39.329689 -4.381510 0.000000 0.000000 0.000000 
-0.131127 0.946468 0.396101 -3.284742 9.402897 4.618801 3.334424 -0.315016 -3.051153 1.912551 0.058191 -4.857847 -6.319020 -6.839606 8.759840 0.000000 0.000000 0.000000 -0.020117 -0.023125 0.289318 4.052866 -0.546459 -5.720357 -5.566131 -14.434582 7.809945 0.000000 0.000000 0.000000 -2.232721 0.050738 -0.188301 -7.343354 3.350877 -1.173471 4.486147 7.912873 6.190190 1.722044 0.803620 -12.200364 0.000000 0.000000 0.000000 -23.184291 -1.879776 -4.944973 -46.088788 1.757493 -5.132420 -7.543591 -25.196068 1.973170 0.000000 0.000000 0.000000 18.017388 15.228683 9.866523 28.937773 35.612020 4.094022 -20.362889 40.101241 -4.567075 0.000000 0.000000 0.000000 
-0.131328 0.946725 0.395306 -3.352445 9.360261 4.529407 3.277858 -0.307960 -2.967246 1.915640 0.057381 -4.845781 -6.326150 -6.827353 8.800180 0.000000 0.000000 0.000000 0.008764 -0.032142 0.365464 4.093534 -0.550706 -5.827549 -5.534922 -14.374207 7.954806 0.000000 0.000000 0.000000 -2.304545 0.046874 0.043148 -7.335786 3.348989 -1.186971 4.620342 7.898449 6.157505 1.628650 0.888337 -12.417321 0.000000 0.000000 0.000000 -23.004457 -2.092088 -4.766429 -46.293847 1.711187 -5.157100 -7.610139 -25.061539 1.981044 0.000000 0.000000 0.000000 17.813262 15.816853 10.135579 28.523451 35.547228 3.996510 -20.314753 41.580548 -4.755334 0.000000 0.000000 0.000000 
-0.131555 0.946803 0.394371 -3.342022 9.364297 4.532745 3.157175 -0.308735 -3.021790 1.984278 0.050353 -4.764846 -6.086418 -6.486705 8.645080 0.000000 0.000000 0.000000 0.015184 -0.014542 0.201555 4.101891 -0.548555 -5.559816 -5.555549 -14.410156 7.635790 0.000000 0.000000 0.000000 -2.349977 0.044063 0.233131 -7.264835 3.316395 -1.243700 4.654904 7.789064 6.158679 1.809523 0.758780 -12.398346 0.000000 0.000000 0.000000 -22.805269 -2.303686 -4.563896 -46.440149 1.600249 -5.159738 -7.669129 -24.934313 1.992141 0.000000 0.000000 0.000000 17.502416 16.249963 10.273394 27.656268 35.775531 3.869489 -19.610873 42.930392 -4.701227 0.000000 0.000000 0.000000 
-0.131740 0.946559 0.393328 -3.498066 9.330451 4.370065 3.191772 -0.295480 -2.809688 2.025918 0.053814 -4.896088 -6.056641 -6.373089 8.733277 0.000000 0.000000 0.000000 0.147506 -0.013833 0.167991 4.058172 -0.544627 -5.529921 -5.439955 -14.166186 7.548217 0.000000 0.000000 0.000000 -2.329826 0.037372 0.496999 -7.392002 3.376950 -1.094584 4.744485 7.768896 5.975774 1.925280 0.686978 -12.484090 0.000000 0.000000 0.000000 -22.813878 -2.641161 -4.360641 -46.327183 1.562183 -5.119156 -7.746834 -24.653661 1.996271 0.000000 0.000000 0.000000 17.177780 16.850939 10.504479 26.719662 36.123741 3.762725 -18.810026 43.625560 -4.531823 0.000000 0.000000 0.000000 
-0.131890 0.946221 0.392322 -3.642852 9.256228 4.133458 3.313855 -0.285941 -2.636403 2.015103 0.049887 -4.802612 -5.953034 -6.310050 8.548045 0.000000 0.000000 0.000000 0.327805 -0.026058 0.242746 4.051149 -0.541324 -5.297084 -5.359405 -13.989331 7.083261 0.000000 0.000000 0.000000 -2.406823 0.032972 0.717549 -7.349205 3.362512 -1.055519 4.821898 7.770360 5.940317 2.411728 0.348793 -12.356844 0.000000 0.000000 0.000000 -22.892965 -2.728329 -4.317737 -46.200559 1.674988 -5.136871 -7.706216 -24.456591 1.977535 0.000000 0.000000 0.000000 16.961641 17.280933 10.673358 25.832645 36.588957 3.669902 -17.704837 44.038550 -4.198905 0.000000 0.000000 0.000000 
-0.132046 0.946016 0.391363 -3.755841 9.206001 3.963740 3.299424 -0.276025 -2.498233 2.072227 0.045486 -4.776008 -5.916294 -6.268336 8.512094 0.000000 0.000000 0.000000 0.390765 -0.041800 0.370919 4.104976 -0.546331 -5.367247 -5.258088 -13.779899 7.176613 0.000000 0.000000 0.000000 -2.423236 0.031940 0.723350 -7.410137 3.395381 -0.908133 4.945078 7.711411 5.927364 2.738208 0.131424 -12.392295 0.000000 0.000000 0.000000 -23.008188 -2.732896 -4.303467 -46.195961 1.810618 -5.192560 -7.660978 -24.202805 1.958392 0.000000 0.000000 0.000000 16.754179 17.797101 10.870897 25.258940 37.122380 3.667610 -17.118597 43.567528 -3.974977 0.000000 0.000000 0.000000 
-0.132266 0.945730 0.390442 -3.884914 8.982766 3.741296 3.417532 -0.259466 -2.207903 2.022070 0.049146 -4.811402 -5.948811 -6.343664 8.519366 0.000000 0.000000 0.000000 0.470547 -0.057119 0.488977 4.204724 -0.552368 -5.313961 -5.024321 -13.288719 7.047100 0.000000 0.000000 0.000000 -2.431826 0.029111 0.793660 -7.504491 3.443181 -0.876959 5.071466 7.772434 6.111372 3.152925 -0.153914 -12.321774 0.000000 0.000000 0.000000 -23.100822 -2.859081 -4.230432 -46.213727 1.910633 -5.246737 -7.377056 -24.148934 1.902717 0.000000 0.000000 0.000000 16.637309 18.186050 11.037906 24.844263 37.815143 3.715987 -16.896271 43.109441 -3.879176 0.000000 0.000000 0.000000 
-0.132564 0.945523 0.389557 -3.930210 8.842408 3.704985 3.359272 -0.261131 -2.279033 2.140719 0.030203 -4.540585 -5.774298 -6.250427 8.193598 0.000000 0.000000 0.000000 0.472227 -0.054902 0.467463 4.195887 -0.549949 -5.281019 -4.955615 -13.147436 7.015553 0.000000 0.000000 0.000000 -2.414730 0.031244 0.660956 -7.621407 3.496597 -0.888078 5.210412 7.870828 6.218309 3.402590 -0.328535 -12.246376 0.000000 0.000000 0.000000 -23.183899 -2.654932 -4.363278 -46.236164 2.200073 -5.360948 -7.363510 -24.151315 1.898802 0.000000 0.000000 0.000000 16.540784 18.324936 11.093061 24.902256 38.624088 3.907571 -17.507569 42.510954 -4.042886 0.000000 0.000000 0.000000 
-0.132911 0.945335 0.388671 -3.960006 8.696814 3.533729 3.455429 -0.256176 -2.186880 2.149846 0.028114 -4.515823 -5.654651 -6.123998 8.067746 0.000000 0.000000 0.000000 0.576321 -0.065924 0.542114 4.131119 -0.542929 -5.217691 -4.783429 -12.776489 6.836203 0.000000 0.000000 0.000000 -2.517901 0.031079 0.722486 -7.621654 3.503544 -0.762620 5.425209 7.932938 6.254873 3.935832 -0.702007 -12.139090 0.000000 0.000000 0.000000 -23.306363 -2.522102 -4.444206 -46.483351 2.432472 -5.494207 -7.129231 -24.368006 1.867865 0.000000 0.000000 0.000000 16.315082 18.566420 11.147409 24.794840 39.396974 4.067900 -18.077396 42.213700 -4.231217 0.000000 0.000000 0.000000 
-0.133294 0.945321 0.387806 -4.029751 8.618577 3.481207 3.522993 -0.262651 -2.286032 2.193263 0.012812 -4.247236 -5.567411 -6.066109 7.920968 0.000000 0.000000 0.000000 0.596849 -0.076288 0.628199 4.191536 -0.547987 -5.305820 -4.641731 -12.475392 6.820647 0.000000 0.000000 0.000000 -2.428692 0.029030 0.711566 -7.706494 3.541580 -0.803016 5.595376 7.954121 6.258535 4.286404 -0.940671 -12.129876 0.000000 0.000000 0.000000 -23.358435 -2.250696 -4.587131 -46.608091 2.580967 -5.578274 -7.312345 -24.609276 1.924350 0.000000 0.000000 0.000000 16.147317 18.657469 11.140459 24.971483 39.974202 4.257436 -18.199427 42.289434 -4.282809 0.000000 0.000000 0.000000 
-0.133699 0.945302 0.386966 -4.101369 8.678406 3.237077 3.426431 -0.257467 -2.263422 2.400249 -0.005077 -4.130361 -5.503481 -6.023133 7.789315 0.000000 0.000000 0.000000 0.680952 -0.109590 0.902482 4.156240 -0.547748 -5.455764 -4.497407 -12.179994 7.037529 0.000000 0.000000 0.000000 -2.534040 0.024214 0.966586 -7.709460 3.543155 -0.914200 5.872216 7.932837 6.348704 4.668170 -1.163680 -12.316825 0.000000 0.000000 0.000000 -23.341606 -2.131814 -4.634672 -47.024191 2.732405 -5.722474 -7.153213 -24.995454 1.917128 0.000000 0.000000 0.000000 15.943793 18.729663 11.118855 25.282316 40.345773 4.438784 -18.295221 42.587152 -4.346622 0.000000 0.000000 0.000000 
-0.134135 0.945486 0.386144 -4.075265 8.744316 3.145735 3.389517 -0.261008 -2.348005 2.352315 -0.005191 -4.067864 -5.418738 -5.767417 7.925971 0.000000 0.000000 0.000000 0.702920 -0.127553 1.054378 4.074094 -0.543850 -5.644425 -4.394603 -11.964932 7.145217 0.000000 0.000000 0.000000 -2.476076 0.020950 1.016002 -7.719894 3.547626 -0.953857 5.978793 8.012681 6.426276 4.663212 -1.129824 -12.440887 0.000000 0.000000 0.000000 -23.238744 -2.103773 -4.653270 -47.371321 2.858042 -5.837010 -7.198848 -25.183887 1.933091 0.000000 0.000000 0.000000 15.981994 18.837213 11.215911 25.419915 40.249612 4.443756 -18.090457 43.165712 -4.322736 0.000000 0.000000 0.000000 
-0.134585 0.945685 0.385368 -4.035806 8.954180 3.311629 3.331428 -0.284490 -2.732689 2.497391 -0.015124 -4.027910 -5.420718 -5.664515 8.059509 0.000000 0.000000 0.000000 0.812530 -0.122234 0.983956 3.925459 -0.535504 -5.790871 -4.416992 -12.008653 7.271296 0.000000 0.000000 0.000000 -2.601145 0.027706 0.878943 -7.640002 3.507215 -0.988165 5.999372 8.105646 6.310009 4.638970 -1.084260 -12.506816 0.000000 0.000000 0.000000 -22.915405 -2.190105 -4.590978 -47.859210 2.762167 -5.877206 -7.136880 -25.314644 1.912065 0.000000 0.000000 0.000000 15.804060 18.657178 11.121677 25.978860 39.840455 4.521042 -17.177307 44.379094 -4.066438 0.000000 0.000000 0.000000 
